<?xml version="1.0" encoding="utf-8"?>
<!-- Generator: Adobe Illustrator 18.0.0, SVG Export Plug-In . SVG Version: 6.00 Build 0)  -->
<!DOCTYPE svg PUBLIC "-//W3C//DTD SVG 1.1//EN" "http://www.w3.org/Graphics/SVG/1.1/DTD/svg11.dtd">
<svg version="1.1" id="Capa_1" xmlns="http://www.w3.org/2000/svg" xmlns:xlink="http://www.w3.org/1999/xlink" x="0px" y="0px"
	 viewBox="0 0 612 633.8" enable-background="new 0 0 612 633.8" xml:space="preserve">
<g>
	<g>
		<g id="XMLID_3_">
			<g>
				<path fill="#9EC764" d="M487,144.8L428.3,106l49.9-6l35.9,27.9l83.1,16.9h-86.7H487z M477.3,129.4c2.2,0,4.1-1.8,4.1-4.1
					c0-2.2-1.8-4.1-4.1-4.1c-2.2,0-4.1,1.8-4.1,4.1C473.2,127.6,475.1,129.4,477.3,129.4z"/>
				<polygon fill="#9EC764" points="428.3,144.8 376.7,200.4 130.6,144.8 387.8,144.8 				"/>
				<polygon fill="#345F29" points="510.6,144.8 417.2,221.1 428.3,144.8 487,144.8 				"/>
				<polygon fill="#9EC764" points="376.7,200.4 292.3,291.8 269.5,316.4 278.1,241.7 291.5,226.9 				"/>
				<polygon fill="#499534" points="428.3,144.8 417.2,221.1 348.9,293 292.3,291.8 376.7,200.4 				"/>
				<polygon fill="#345F29" points="278.1,241.7 269.5,316.4 176.2,370.8 206.2,320.8 				"/>
				<polygon fill="#499534" points="387.8,144.8 130.6,144.8 14.5,32.6 218.2,93.7 				"/>
				<path fill="#345F29" d="M481.4,125.4c0,2.2-1.8,4.1-4.1,4.1c-2.2,0-4.1-1.8-4.1-4.1c0-2.2,1.8-4.1,4.1-4.1
					C479.6,121.3,481.4,123.1,481.4,125.4z"/>
				<polygon fill="#499534" points="487,144.8 428.3,144.8 387.8,144.8 428.3,106 				"/>
				<polygon fill="#9EC764" points="387.8,144.8 218.2,93.7 307.8,77.2 				"/>
				<polygon fill="#345F29" points="376.7,200.4 291.5,226.9 130.6,144.8 				"/>
				<polygon fill="#345F29" points="307.8,77.2 218.2,93.7 149,9 				"/>
			</g>
			<g>
			</g>
		</g>
	</g>
</g>
<g>
	<g>
		<g id="XMLID_1_">
			<g>
				<path fill="#345F29" d="M34.4,615.6c0.6,2.3,2,3.8,4.1,4.6l-1.2,3.4c-0.2-0.1-0.3-0.1-0.5-0.2c-6.8-2.5-11.4-6.2-14.1-11.1
					c-2.6-4.9-3.8-10.4-3.4-16.2c0.4-5.8,2.1-11.7,5.1-17.7c3-5.9,6.8-11,11.4-15.3c4.6-4.3,9.8-7.3,15.5-9.2
					c5.3-1.7,10.8-1.7,16.3,0.2l-0.8,3.4c-1.1,0-2.5,0.6-4.1,1.8c-2,1.5-4.1,3.5-6.3,6.2c-2.3,2.7-4.5,5.7-6.9,9.2
					c-2.4,3.5-4.6,7.1-6.7,11c-2.1,3.8-3.9,7.6-5.3,11.4c-1.3,3.3-2.3,6.4-2.9,9.2c-0.1,0.4-0.2,0.8-0.2,1.2
					C33.8,610.6,33.8,613.4,34.4,615.6z"/>
				<path fill="#345F29" d="M206,550.1c-3.4,2.3-6.5,3.4-9,3.4c-4.6,0-7.5-1.4-8.7-4.3c-1.2-2.9-1.2-6.7,0-11.4
					c1.2-4.7,3.2-10.1,6.2-16s6.2-12,9.8-18.2c0.3-0.3,1.2-1.8,2.7-4.4c1.5-2.6,3.3-5.8,5.4-9.6c2.1-3.8,4.5-7.9,7.1-12.4
					c2.6-4.5,5.1-8.9,7.6-13.2c3.4-5.7,6.3-10.7,8.8-14.9c2.5-4.2,4.4-7.6,5.8-10.4c1.4-2.8,2.3-4.9,2.5-6.3
					c0.3-1.5-0.2-2.4-1.3-2.7c-1.9-0.7-5.2,1.5-9.9,6.6c-2.3,2.5-4.9,5.6-7.8,9.2l-3.1-2.5c1.2-1.5,2.4-3,3.6-4.5
					c4-4.9,7.9-8.9,11.7-12.2c3.8-3.2,7.5-5.5,11-6.8c3.5-1.3,6.8-1.2,9.8,0.2c2.1,1.1,3.8,2.7,5,4.6c1.2,2,1.7,4.5,1.6,7.4
					c-0.1,3-0.9,6.6-2.4,10.8c-1.5,4.2-4,9.2-7.3,14.9l-27.3,48l-1.2,2.1c-1.7,3.3-3.4,6.2-5,9c-1.6,2.7-3.2,5.2-4.7,7.6
					c-1.5,2.4-3,4.6-4.4,6.7c-1.4,2.2-2.7,4.3-4,6.6c-0.7,1.1-1.2,2.3-1.7,3.5c-0.4,1.2-0.7,2.1-0.8,2.9c-0.1,0.7,0,1.2,0.2,1.3
					c0.3,0.2,0.9-0.2,1.9-1.1c3.8-3.2,8.9-9.2,15.3-17.7c1-1.4,1.6-2.2,2-2.5c0,0,0,0,0,0.1c0,0,0,0,0,0c-0.7,1.3-0.3,0.8,0,0.3
					c0.1,1.5,0.3,3,0.6,4.5c-3,4.1-5.8,7.6-8.4,10.6C213.3,544.3,209.5,547.9,206,550.1z"/>
				<path fill="#499534" d="M590,574l-0.2,13.3c-0.7-0.1-1.5-0.2-2.5-0.3c-0.9-0.1-1.8-0.1-2.5-0.1c-2.7,0-4.9,0.5-6.6,1.4
					c-1.7,0.9-2.9,2.2-3.7,3.9v33.8h-13.8v-51.6h13l0.4,6.2c1.3-2.2,2.9-4,4.8-5.2c1.9-1.2,4.1-1.9,6.7-1.9c0.7,0,1.5,0.1,2.3,0.2
					C588.8,573.7,589.5,573.8,590,574z"/>
				<path fill="#499534" d="M507.3,524.9v1.1c0,3.7-0.5,7.2-1.6,10.4c-1.1,3.2-2.6,6-4.7,8.3c-2,2.4-4.5,4.2-7.4,5.5
					c-2.9,1.3-6.2,2-9.8,2c-3.6,0-6.9-0.7-9.8-2s-5.3-3.1-7.4-5.5c-2-2.3-3.6-5.1-4.7-8.3c-1.1-3.2-1.6-6.7-1.6-10.4v-1.1
					c0-3.7,0.6-7.2,1.6-10.4c1.1-3.2,2.7-6,4.7-8.3c2-2.4,4.5-4.2,7.4-5.5c2.9-1.3,6.1-2,9.7-2c3.6,0,6.9,0.7,9.8,2
					c2.9,1.3,5.4,3.2,7.4,5.5c2,2.4,3.6,5.1,4.7,8.3C506.8,517.7,507.3,521.2,507.3,524.9z M498.5,526v-1.1c0-2.5-0.3-5-0.9-7.3
					c-0.6-2.3-1.5-4.3-2.8-6.1c-1.2-1.7-2.8-3.1-4.6-4.1c-1.8-1-4-1.5-6.4-1.5c-2.4,0-4.5,0.5-6.3,1.5c-1.8,1-3.3,2.4-4.6,4.1
					c-1.2,1.7-2.1,3.7-2.7,6.1c-0.6,2.3-0.9,4.7-0.9,7.3v1.1c0,2.6,0.3,5,0.9,7.3c0.6,2.3,1.5,4.3,2.7,6c1.2,1.7,2.8,3.1,4.6,4.1
					c1.8,1,4,1.5,6.4,1.5c2.4,0,4.5-0.5,6.4-1.5c1.8-1,3.4-2.4,4.6-4.1c1.2-1.7,2.1-3.7,2.7-6C498.2,531,498.5,528.6,498.5,526z"/>
				<path fill="#345F29" d="M352.2,529.1c-0.9,0-1.4,0.3-1.7,1l-2.1,2.7c0.1-0.2,0.2-0.4,0.3-0.6c3.1-4.2,5.8-8.7,8-13.3
					c2.3-4.7,4.4-8.9,6.4-12.9c2-3.9,4.1-7.2,6.2-9.7c2.1-2.6,4.7-3.9,7.6-3.9c1.2,0,2.2,0.7,2.8,2.1c0.6,1.4,1.1,3.2,1.4,5.5
					s0.4,4.9,0.5,7.8c0,2.9,0.1,5.9,0.1,8.9s0.1,6.1,0.2,8.9c0.1,2.9,0.4,5.5,0.8,7.8c0.4,2.3,1.1,4.1,2,5.5
					c0.9,1.4,2.1,2.1,3.6,2.1c1.5,0,3.1-0.3,4.7-1c1.6-0.6,3.1-1.4,4.4-2.3c1.2-0.7,2.4-1.5,3.5-2.4c0.4,1.1,0.9,2.2,1.5,3.2
					c-0.6,0.7-1.4,1.5-2.1,2.2c-1.7,1.7-3.7,3.3-5.8,4.8c-2.1,1.5-4.4,2.7-6.9,3.7c-2.4,1-4.9,1.5-7.6,1.5c-3.8,0-6.7-1-8.8-2.9
					c-2.1-2-3.7-4.4-4.7-7.3c-1-2.9-1.6-6-1.8-9.5c-0.2-3.4-0.2-6.6-0.2-9.5c0.1-2.9,0.2-5.3,0.2-7.3c0.1-1.9-0.1-2.9-0.6-2.9
					c-0.9,1.9-2.1,4.1-3.4,6.6c-1.4,2.4-2.7,4.8-3.9,7c-1.2,2-2.2,3.8-3.1,5.3C353.7,529.5,353.2,529.1,352.2,529.1z"/>
				<path fill="#345F29" d="M165.1,460.1c4-5.9,8.1-11.4,12.1-16.5c4.6-5.8,9.1-10.8,13.6-14.9c4.5-4.1,8.7-6.9,12.8-8.6
					c4.1-1.7,7.9-1.8,11.4-0.3c2.5,1.1,4.2,2.8,5.2,4.9c1,2.1,1.4,4.7,1.2,7.6c-0.2,2.9-1,6.2-2.4,9.9c-1.3,3.7-3.1,7.6-5.2,11.8
					c2.8-3.7,5.5-7.4,8.3-10.8l3.1,2.5c-2.8,3.6-5.9,7.8-9.3,12.4c-6.7,9.3-14.2,20.5-22.5,33.3c-8.3,12.9-17,26.9-26.2,42.1
					c-1.8,3.4-3.5,6.8-5.1,10.1c-1.6,3.4-3,6.7-4.2,10c-4.7,0.6-8.1-0.1-10.1-2c-1.9-1.9-2.9-4.7-2.8-8.3c0-3.7,1-8,2.8-13.1
					c1.9-5,4.2-10.5,7.1-16.4c2.9-5.8,6.1-11.9,9.7-18.2c3.6-6.2,7.2-12.4,10.9-18.4c3.6-6,7.2-11.8,10.5-17.3
					c3.4-5.5,6.3-10.4,8.7-14.7c2.4-4.3,4.2-7.8,5.3-10.5c1.1-2.7,1.3-4.4,0.5-4.9c-1.2-0.8-3-0.4-5.3,1.1c-2.3,1.5-4.9,3.9-7.9,7
					c-2.9,3.2-6.1,7-9.5,11.4c-3.2,4.1-6.4,8.5-9.7,13.2L165.1,460.1z"/>
				<rect x="574.9" y="478" fill="#499534" width="8.8" height="73.2"/>
				<path fill="#499534" d="M497.7,599.6v1c0,3.8-0.6,7.3-1.6,10.5c-1.1,3.2-2.7,6-4.7,8.3c-2.1,2.3-4.6,4.2-7.7,5.5
					c-3,1.3-6.5,2-10.4,2c-3.9,0-7.4-0.7-10.4-2s-5.6-3.2-7.7-5.5c-2.1-2.3-3.7-5.1-4.7-8.3c-1.1-3.2-1.6-6.7-1.6-10.5v-1
					c0-3.8,0.5-7.2,1.6-10.5c1.1-3.2,2.7-6,4.7-8.3c2.1-2.3,4.6-4.2,7.6-5.5c3-1.3,6.5-2,10.4-2c3.9,0,7.4,0.7,10.5,2
					c3,1.3,5.6,3.2,7.7,5.5c2.1,2.3,3.6,5.1,4.7,8.3C497.1,592.4,497.7,595.9,497.7,599.6z M483.9,600.6v-1c0-2-0.2-4-0.6-5.8
					c-0.4-1.8-1-3.4-1.9-4.8c-0.9-1.4-2-2.5-3.3-3.3c-1.4-0.8-3-1.2-5-1.2c-1.9,0-3.5,0.4-4.9,1.2c-1.3,0.8-2.4,1.9-3.3,3.3
					c-0.8,1.4-1.5,3-1.8,4.8c-0.4,1.8-0.6,3.7-0.6,5.8v1c0,2.1,0.2,4.1,0.6,5.9c0.4,1.9,1,3.5,1.8,4.8c0.8,1.4,1.9,2.4,3.3,3.2
					c1.4,0.8,3,1.2,5,1.2c1.9,0,3.5-0.4,4.9-1.2c1.4-0.8,2.4-1.9,3.3-3.2c0.9-1.3,1.5-2.9,1.9-4.8
					C483.7,604.7,483.9,602.7,483.9,600.6z"/>
				<path fill="#345F29" d="M166.7,428.2c5-3.6,10.3-5.1,16-4.6l2.4,1.7c-2.3,2.8-4.6,6.1-7,10c-2.4,3.8-4.8,8.1-7.2,12.7
					c-2.4,4.7-4.9,9.5-7.5,14.6c0.6-0.9,1.1-1.7,1.7-2.5l3.2,2.3c-0.3,0.4-0.6,0.9-0.9,1.3c-3.6,5.2-7.2,10.5-10.8,16
					c-3.6,5.5-7.1,10.7-10.3,15.8c-4.9,8.9-45.6,89.7-51.1,97.6c-5.4,7.9-11.1,14.6-17.2,20.1c-6.1,5.5-12.5,9.2-19.3,11.4
					c-6.7,2.1-13.8,1.8-21.4-1l1.2-3.4c5,1.8,9.7,1.3,14.2-1.4c4.5-2.8,8.9-7,13.2-12.7c4.3-5.7,8.4-12.4,12.5-20.3
					c0-0.1,0.1-0.1,0.1-0.2v0c0.2-0.4,0.4-0.8,0.6-1.2c3.8-7.4,7.7-15,11.6-22.8c4.2-8.3,44-89,48.3-97.1s8.6-15.3,13.3-21.5
					C156.9,436.7,161.7,431.8,166.7,428.2z"/>
				<path fill="#1F6E55" d="M225.4,523.9c0,0,0.1-0.1,0.1-0.1C225.5,523.9,225.4,523.9,225.4,523.9C225.4,524,225.4,524,225.4,523.9
					z"/>
				<path fill="#345F29" d="M170.6,423.7c-4.7,0.6-9.5,1.9-14.4,3.7c-4.9,1.9-9.7,4.3-14.3,7.3s-8.6,6.5-11.9,10.5
					c-3.3,4-6.3,7.3-7.8,12.3s-1.5,10.5,0,16.4c-6.4,0.6-11.3-0.6-14.8-3.5c-3.4-2.9-5.2-6.6-5.2-11.1s2.3-8.3,5.8-13.6
					c3.4-5.3,8.8-10.2,16.1-14.6c7.3-4.4,16.6-7.8,27.8-10.3c11.2-2.5,24.6-3.1,40.1-1.9c-2.3,1.5-4.5,3.6-6.8,6.4l-2.4-1.7
					C179.3,423.1,175.2,423.1,170.6,423.7z"/>
				<path fill="#499534" d="M405.4,530.1l-3.5,4.5c-0.3,0.3-0.7,0.6-1,0.8c-0.3-0.7-0.6-1.5-0.8-2.2c-1.3-3.9-1.9-8.3-1.9-13.2v-7
					c0-4.9,0.6-9.3,1.9-13.2c1.3-4,3.2-7.3,5.6-10.1c2.4-2.8,5.3-5,8.8-6.5c3.4-1.5,7.3-2.3,11.6-2.3c3.9,0,7.4,0.6,10.4,1.7
					c3,1.1,5.6,2.7,7.7,4.8c2.1,2,3.8,4.5,5,7.3c1.2,2.8,2,6,2.4,9.4h-9.2c-0.4-2.4-0.9-4.6-1.6-6.5c-0.7-1.9-1.7-3.6-3-5
					c-1.3-1.4-2.9-2.4-4.8-3.1c-1.9-0.7-4.2-1.1-6.9-1.1c-3.1,0-5.8,0.6-8.1,1.8c-2.3,1.2-4.3,2.9-5.9,5c-1.6,2.1-2.8,4.7-3.6,7.8
					c-0.8,3-1.2,6.4-1.2,10v7.1c0,3.4,0.3,6.6,1.1,9.6c-0.2-0.3-0.7-0.5-1.3-0.5C406.3,529.1,405.7,529.4,405.4,530.1z"/>
				<path fill="#345F29" d="M302,507.2c0.9-2.4,1.4-4.4,1.6-6.2c0.2-1.8,0-3.3-0.7-4.4c-0.7-1.1-1.9-1.7-3.8-1.7
					c-1.6,0-2.7,0.6-3.3,1.7c-0.6,1.1-0.9,2.6-0.7,4.4c0.1,1.8,0.5,3.9,1.2,6.2c0.7,2.3,1.6,4.7,2.7,7.1
					C300.1,511.9,301.2,509.6,302,507.2z M330.9,499.1c-0.2,0.5-0.8,1.7-1.8,3.9c-1,2.1-2.3,4.8-3.9,7.9c-1.6,3.2-3.4,6.7-5.6,10.6
					c-2.1,3.9-4.5,7.9-7.1,12.1c2.4,2.2,5,4,7.7,5.4c2.8,1.4,5.7,2.1,8.7,2.1c3.3,0,6.1-0.3,8.4-1c2.3-0.6,4.2-1.4,5.7-2.3
					c1.7-0.9,3.1-2,4.1-3.2l1.4-1.8c-0.1,0.3-0.1,0.6,0,0.8c0.2,0.4,0.4,0.7,0.8,0.9c0.4,0.2,0.8,0.2,1.4,0.1c0.5-0.1,1-0.4,1.4-1
					c0.2-0.2,0.7-1.2,1.6-2.8c0.1-0.1,0.1-0.2,0.2-0.4c0,0.1,0,0.2,0,0.3c0,0.1-0.3,0.6-0.9,1.6c-0.6,1-1.5,2.3-2.7,3.8
					c-1.2,1.5-2.8,3.1-4.6,4.8c-1.8,1.7-4,3.3-6.6,4.8s-5.4,2.7-8.6,3.7c-3.2,1-6.7,1.5-10.7,1.5c-3.5,0-6.6-0.3-9.3-1
					c-2.7-0.7-5.2-1.6-7.4-2.8c-3.9,5.1-7.9,9.7-12.2,13.9c-4.3,4.2-3.5-1.9-0.7-4.7c2.8-2.8,5.9-6.6,9.5-11.4
					c-3.6-2.5-6.5-5.5-8.6-8.9c-0.9-1.5-1.7-2.9-2.4-4.3c0.6-0.6,1-1,1.1-1.2c0.2-0.3,0.3-0.7,0.2-1.2c-0.1-0.5-0.2-0.8-0.5-1.1
					s-0.6-0.4-1.1-0.3c-0.4,0.1-0.8,0.3-1.1,0.8c-0.3-0.8-0.6-1.6-0.9-2.4c-1.3-3.6-2.2-7.3-2.5-11.1c-0.5-4.2-0.4-8,0.5-11.4
					c0.4-1.5,0.9-2.9,1.6-4.3s1.6-2.6,2.9-3.7c1.2-1.1,2.7-1.9,4.4-2.6c1.7-0.6,3.8-1,6.3-1c2.9,0,4.9,0.8,6,2.3
					c1.1,1.5,1.5,3.5,1.3,5.9c-0.2,2.4-0.9,5.1-2.1,8.1c-1.2,3-2.6,5.9-4.1,8.9c0.9,2,2.1,4.1,3.6,6.4c1.5,2.3,3.2,4.5,5.3,6.6
					c2.8-4.4,5.7-9.2,8.7-14.6c3-5.3,6.3-11.4,9.7-18.2c0.6-1.1,1.1-1.9,1.7-2.2s1.1-0.4,1.4-0.2c0.4,0.2,0.5,0.7,0.6,1.4
					C331.5,497.3,331.3,498.2,330.9,499.1z"/>
				<path fill="#499534" d="M408.8,530.7c0,0.1-0.3,0.6-1,1.6c-0.7,1-1.7,2.3-2.9,3.8c-0.7,0.8-1.5,1.7-2.4,2.6
					c-0.6-1-1.1-2.1-1.5-3.2c0.3-0.3,0.7-0.6,1-0.8l3.5-4.5c0.3-0.7,0.9-1,1.7-1c0.6,0,1.1,0.2,1.3,0.5
					C408.5,530,408.6,530.3,408.8,530.7L408.8,530.7z"/>
				<path fill="#1F6E55" d="M225.4,524.3c0-0.1,0-0.2,0-0.3c0,0,0,0,0,0c0-0.1,0-0.1,0.1-0.2C226,523.3,225.7,523.8,225.4,524.3z"/>
				<path fill="#1F6E55" d="M225.4,524.3c-0.3,0.5-0.7,1,0-0.3C225.4,524.1,225.4,524.2,225.4,524.3z"/>
				<path fill="#345F29" d="M287.1,528.7c0.4-0.5,0.8-0.7,1.1-0.8c0.5-0.1,0.8,0,1.1,0.3s0.4,0.7,0.5,1.1c0.1,0.5,0,0.9-0.2,1.2
					c-0.1,0.2-0.5,0.6-1.1,1.2C288,530.7,287.6,529.7,287.1,528.7z"/>
				<path fill="#345F29" d="M232,520.3c-2,3.1-4,5.9-5.9,8.5c-0.4-1.6-0.6-3.1-0.6-4.5c0.3-0.5,0.6-1,0.1-0.5c0.5-1,1.5-2.7,3.2-5.7
					h3.6c-4.4,7.9,0,1.6,1,0.3C233.1,518.7,232.7,519.3,232,520.3z"/>
				<path fill="#499534" d="M408.8,530.7c0.7,2.5,1.7,4.8,3,6.7c1.5,2.2,3.3,4,5.6,5.3c2.3,1.3,4.9,1.9,8,1.9c2.9,0,5.4-0.3,7.4-1.1
					c2-0.7,3.6-1.7,5-3c1.3-1.3,2.4-2.9,3.1-4.9c0.7-1.9,1.3-4.1,1.7-6.6h9.2c-0.4,3.3-1.2,6.3-2.4,9.1c-1.2,2.8-2.9,5.3-5.1,7.3
					c-2.2,2-4.8,3.6-7.9,4.8c-3.1,1.2-6.7,1.7-10.9,1.7c-4.1,0-7.8-0.8-11.2-2.3s-6.2-3.7-8.6-6.5c-1.2-1.4-2.3-3-3.2-4.7
					c0.9-0.9,1.7-1.8,2.4-2.6c1.3-1.5,2.3-2.8,2.9-3.8C408.4,531.3,408.8,530.8,408.8,530.7z"/>
				<path fill="#345F29" d="M253.7,496.4c-2.6,0-4.8,1.2-6.4,3.5c-1.6,2.4-2.8,5.3-3.4,8.7c-0.6,3.5-0.7,7.2-0.2,11.3
					c0.5,4.1,1.5,7.8,3,11.3c1.6-1.4,3.4-3,5.3-4.8c1.9-1.8,3.7-3.7,5.4-5.7c1.7-1.9,3.2-3.9,4.4-5.9c1.3-1.9,2-3.8,2.3-5.5
					c0.4-2.4,0.3-4.4-0.1-6.1c-0.5-1.6-1.2-3-2.2-4c-1-1-2.2-1.7-3.6-2.2C256.7,496.6,255.2,496.4,253.7,496.4z M277.3,537.3
					c3-1.8,6.2-4.5,9.6-8.3c0.1-0.1,0.2-0.2,0.2-0.3c0.4,1,0.9,2,1.5,3c-0.2,0.2-0.5,0.5-0.8,0.9c-1.1,1.1-2.6,2.4-4.4,3.9
					c-1.9,1.5-4,3.1-6.4,4.8c-2.4,1.7-5,3.3-7.8,4.7c-2.8,1.4-5.7,2.6-8.7,3.5c-3,0.9-6,1.4-9,1.4c-4.5,0-8.4-0.9-11.7-2.8
					c-3.3-1.9-6-4.2-8.1-6.9c-2.1-2.8-3.7-5.8-4.7-9.1c-0.3-1.1-0.6-2.2-0.9-3.2c1.9-2.6,3.9-5.4,5.9-8.5c0.7-1,1.1-1.6,1.3-1.9
					c-1,1.3-5.4,7.6-1-0.3h-3.6c-1.7,3-2.7,4.7-3.2,5.7c0,0-0.1,0.1-0.1,0.1c0-0.4,0-0.8,0-1.2c0-3,0.6-6.2,1.7-9.7
					c0.7-2.2,1.6-4.2,2.8-6.2c0.7-1.2,1.5-2.3,2.3-3.4c2.3-3,5.1-5.4,8.5-7.4c3.4-2,7.3-2.9,11.7-2.9c3.5,0,6.4,0.5,8.5,1.5
					c2.2,1.1,3.8,2.4,4.9,4c1.1,1.6,1.7,3.4,1.9,5.3c0.2,1.9,0.1,3.8-0.2,5.5c-0.5,1.9-1.4,4-2.8,6.3c-1.4,2.3-3.1,4.5-4.9,6.7
					c-1.9,2.2-3.8,4.4-5.8,6.5c-2,2.1-3.9,3.9-5.5,5.4c1.5,2.5,3.4,4.5,5.7,6c2.3,1.5,4.9,2.3,8,2.3c2.2,0,4.6-0.5,7.3-1.4
					C271.7,540.5,274.3,539.1,277.3,537.3z"/>
				<path fill="#1F6E55" d="M408.4,529.6c0.2,0.3,0.3,0.6,0.3,1.1C408.6,530.3,408.5,530,408.4,529.6z"/>
				<path fill="#499534" d="M563,524.9v1.1c0,3.7-0.5,7.2-1.6,10.4s-2.6,6-4.7,8.3c-2,2.4-4.5,4.2-7.4,5.5c-2.9,1.3-6.2,2-9.8,2
					c-3.6,0-6.9-0.7-9.8-2c-2.9-1.3-5.4-3.1-7.4-5.5c-2-2.3-3.6-5.1-4.7-8.3s-1.6-6.7-1.6-10.4v-1.1c0-3.7,0.6-7.2,1.6-10.4
					c1.1-3.2,2.7-6,4.7-8.3c2-2.4,4.5-4.2,7.4-5.5c2.9-1.3,6.1-2,9.7-2c3.6,0,6.9,0.7,9.8,2c2.9,1.3,5.4,3.2,7.4,5.5
					c2,2.4,3.6,5.1,4.7,8.3C562.5,517.7,563,521.2,563,524.9z M554.2,526v-1.1c0-2.5-0.3-5-0.9-7.3c-0.6-2.3-1.5-4.3-2.8-6.1
					c-1.2-1.7-2.8-3.1-4.6-4.1c-1.9-1-4-1.5-6.4-1.5c-2.4,0-4.5,0.5-6.3,1.5c-1.8,1-3.3,2.4-4.5,4.1c-1.2,1.7-2.1,3.7-2.8,6.1
					c-0.6,2.3-0.9,4.7-0.9,7.3v1.1c0,2.6,0.3,5,0.9,7.3c0.6,2.3,1.5,4.3,2.8,6c1.2,1.7,2.8,3.1,4.6,4.1c1.8,1,4,1.5,6.4,1.5
					c2.4,0,4.5-0.5,6.4-1.5c1.8-1,3.4-2.4,4.6-4.1c1.2-1.7,2.1-3.7,2.8-6C553.9,531,554.2,528.6,554.2,526z"/>
				<path fill="#345F29" d="M353.6,530.8c-0.9,1.6-1.5,2.5-1.6,2.8c-0.4,0.5-0.9,0.9-1.4,1c-0.5,0.1-1,0.1-1.4-0.1
					c-0.4-0.2-0.7-0.5-0.8-0.9c-0.1-0.2-0.1-0.5,0-0.8l2.1-2.7c0.3-0.7,0.9-1,1.7-1c1,0,1.5,0.5,1.6,1.4
					C353.7,530.6,353.7,530.7,353.6,530.8z"/>
				<polygon fill="#499534" points="453.6,556.5 453.6,568.1 432.3,568.1 432.3,625.9 418.1,625.9 418.1,568.1 397.1,568.1 
					397.1,556.5 				"/>
				<path fill="#345F29" d="M381.5,467.1c1.8,1.8,2.8,4.1,2.8,6.7c0,2.7-0.9,5-2.8,6.8c-1.9,1.8-4.1,2.8-6.8,2.8
					c-2.7,0-4.9-0.9-6.8-2.8c-1.9-1.9-2.8-4.1-2.8-6.8c0-2.6,0.9-4.9,2.8-6.7c1.9-1.9,4.1-2.8,6.8-2.8
					C377.4,464.3,379.7,465.3,381.5,467.1z"/>
				<path fill="#499534" d="M550.4,574.3v51.6h-13l-0.4-5.3c-1.6,2-3.6,3.5-5.9,4.6c-2.3,1.1-5,1.6-8.2,1.6c-2.5,0-4.9-0.4-7-1.1
					c-2.1-0.7-3.9-1.8-5.4-3.4c-1.5-1.5-2.7-3.5-3.5-6c-0.8-2.4-1.2-5.3-1.2-8.8v-33.4h13.8v33.5c0,1.4,0.2,2.7,0.5,3.7
					c0.4,1,0.9,1.8,1.5,2.4c0.6,0.6,1.4,1.1,2.3,1.4c0.9,0.3,1.9,0.4,3,0.4c2.5,0,4.5-0.4,6.1-1.3c1.5-0.9,2.8-2,3.6-3.6v-36.5
					H550.4z"/>
				<path fill="#345F29" d="M67.6,557.5c-0.2-0.1-0.5-0.1-0.7-0.1l0.8-3.4c0.4,0.1,0.8,0.3,1.2,0.4c4.4,1.6,7.3,4.2,8.6,7.8
					c1.4,3.6,1.6,7.5,0.8,11.8c-0.5,2.8-1.4,5.7-2.8,8.5c-0.2,0.4-0.4,0.8-0.6,1.2c-0.6,1.1-1.1,2.2-1.8,3.3
					c-2.6,4.5-5.8,8.3-9.4,11.7c-3.6,3.3-7.5,5.8-11.7,7.4c-4.2,1.6-8.3,1.8-12.2,0.6c0.5-0.2,1.6-1.6,3.4-4.1
					c1.8-2.5,3.9-5.5,6.3-8.9c2.4-3.5,4.9-7.3,7.5-11.4c2.6-4.1,4.9-8,6.8-11.6c1.9-3.6,3.3-6.6,4.1-9.1
					C68.7,559.3,68.6,557.9,67.6,557.5z"/>
			</g>
			<g>
			</g>
		</g>
	</g>
</g>
</svg>
